<svg width="50" height="50" viewBox="0 0 50 50" fill="none" xmlns="http://www.w3.org/2000/svg">
<g id="cricket" clip-path="url(#clip0)">
<path id="Vector" d="M8.95715 1.61037C8.91658 1.14163 8.6889 0.70912 8.32493 0.410541C7.96018 0.108023 7.48986 -0.0361457 7.01836 0.00915325L1.70145 0.508623C1.23113 0.55077 0.797047 0.778446 0.495317 1.14163C0.193193 1.50441 0.0486308 1.97276 0.092748 2.44269L0.343664 5.10154L9.20885 4.27119L8.95715 1.61037Z" fill="#37A6F6"/>
<path id="Vector_2" d="M13.2005 49.7043C13.3703 49.5196 13.4534 49.2706 13.4282 49.0209L12.538 39.568C8.52093 34.5619 7.87059 27.6437 10.8851 21.9767L9.38082 6.04248L0.515625 6.87322L4.50626 49.1942C4.54998 49.6527 4.93601 50.0021 5.39609 50.0001H12.5462C12.7964 49.9993 13.0343 49.8918 13.2005 49.7043Z" fill="#37A6F6"/>
<path id="Vector_3" d="M20.5059 14.145C23.4109 13.293 26.4975 13.2831 29.4077 14.1174L29.4707 6.3772H20.5693L20.5059 14.145Z" fill="#37A6F6"/>
<path id="Vector_4" d="M22.9941 37.771C17.5775 32.3934 15.6285 24.4362 17.9466 17.1643C17.2612 17.5523 16.6097 17.997 15.998 18.4933C15.868 18.9644 15.7455 19.4379 15.6502 19.9086C15.5655 20.323 15.2015 20.6204 14.7784 20.6208C14.719 20.6208 14.6591 20.6149 14.6004 20.6031C14.4239 20.5645 14.2636 20.4711 14.1431 20.336C10.5676 24.5591 9.76366 30.4715 12.0822 35.4954C14.4007 40.5196 19.421 43.7445 24.9541 43.7642C24.9274 43.5838 24.9585 43.3998 25.0432 43.2383C25.157 43.0315 25.3484 42.8783 25.5753 42.8125C25.8022 42.7472 26.046 42.7743 26.2528 42.8886C26.6712 43.1198 27.1084 43.3337 27.5464 43.533C28.6206 43.3419 29.6692 43.0264 30.6709 42.5927C27.782 41.5832 25.1578 39.9347 22.9941 37.771ZM13.7362 27.8836C13.5392 26.6593 13.44 25.4209 13.44 24.1805C13.44 24.023 13.44 23.8666 13.44 23.7106C13.466 23.2265 13.8626 22.8452 14.3479 22.8381C14.5839 22.8428 14.8088 22.9413 14.9722 23.1119C15.1361 23.2824 15.2251 23.5109 15.22 23.7472V24.1805C15.2208 25.326 15.3122 26.4691 15.4942 27.6C15.5722 28.0849 15.2425 28.5418 14.7572 28.6198C14.7099 28.6277 14.6618 28.6316 14.6138 28.6316C14.1777 28.6308 13.8059 28.3145 13.7362 27.8836ZM17.7418 36.0606C17.6067 36.139 17.453 36.18 17.2971 36.1792C16.9784 36.18 16.6834 36.0102 16.5242 35.7341C15.8274 34.5232 15.2421 33.2517 14.7749 31.9349C14.6177 31.4736 14.8608 30.9714 15.3201 30.8083C15.7797 30.6457 16.2847 30.8828 16.4529 31.3401C16.8843 32.5549 17.4251 33.7276 18.0687 34.8439C18.1869 35.0487 18.2184 35.2921 18.157 35.5206C18.0951 35.7487 17.9454 35.9433 17.7402 36.0606H17.7418ZM23.1666 41.9645C22.8543 42.3438 22.2937 42.3985 21.914 42.0862C21.3302 41.6064 20.7571 41.0892 20.2182 40.548C19.7735 40.1076 19.3434 39.6377 18.9329 39.1544C18.6147 38.7794 18.6604 38.2173 19.0354 37.899C19.4104 37.5807 19.9721 37.6264 20.2903 38.0014C20.6697 38.4465 21.0687 38.8818 21.4764 39.2887C21.9774 39.7897 22.5053 40.2679 23.0445 40.713C23.423 41.0254 23.4766 41.5855 23.165 41.9645H23.1666Z" fill="#37A6F6"/>
<path id="Vector_5" d="M35.0424 38.0813C35.4312 38.1625 35.8365 38.2133 36.2395 38.2665C38.994 34.7355 39.926 30.1138 38.7549 25.7915C37.5839 21.4689 34.4464 17.9497 30.286 16.2918H30.2809C30.0977 16.2859 29.9209 16.2221 29.7763 16.1094C28.2472 15.5631 26.6357 15.2818 25.0121 15.2791C24.6702 15.2791 24.3318 15.3047 23.9946 15.3287C23.8166 15.6911 23.6385 16.0535 23.4853 16.4237C23.3667 16.7188 23.0997 16.9283 22.7849 16.9732C22.4698 17.0177 22.1551 16.8913 21.9585 16.6412C21.7624 16.3906 21.7147 16.0546 21.8333 15.7596C21.8502 15.7171 21.8707 15.6761 21.8884 15.6332C21.3228 15.7608 20.765 15.9231 20.2194 16.1192C18.1243 21.1309 18.3185 26.8062 20.7504 31.6631C23.1824 36.5199 27.6106 40.0753 32.8783 41.4C33.5637 40.9391 34.2077 40.4195 34.8037 39.8476C34.762 39.8385 34.7147 39.8362 34.6757 39.8271C34.357 39.7692 34.0951 39.5435 33.9911 39.2367C33.8875 38.9302 33.958 38.5914 34.1762 38.3519C34.394 38.1124 34.7249 38.0104 35.0397 38.0849L35.0424 38.0813ZM20.561 22.5064V22.4004C20.5606 21.2829 20.6638 20.1682 20.869 19.0704C20.96 18.5871 21.4252 18.2688 21.9085 18.3594C22.3918 18.45 22.7101 18.9156 22.6191 19.3985C22.434 20.3884 22.341 21.3932 22.3414 22.4004C22.3512 22.8999 21.9629 23.3174 21.4638 23.3438H21.4512C21.2215 23.3529 20.9978 23.2694 20.8304 23.1118C20.663 22.9543 20.5661 22.736 20.561 22.5064ZM23.0725 29.6999C22.6183 29.8874 22.098 29.6719 21.9097 29.2181C21.4689 28.1558 21.1337 27.0524 20.9084 25.9243C20.813 25.4429 21.1254 24.9754 21.6068 24.8793C22.0877 24.7828 22.5561 25.0939 22.6538 25.5745C22.8566 26.5896 23.158 27.5826 23.5538 28.539C23.7405 28.9924 23.5251 29.5116 23.0725 29.6999ZM26.9702 34.9321C26.6208 35.2775 26.0575 35.2744 25.7116 34.925C24.9026 34.108 24.1734 33.2154 23.5341 32.2598C23.338 31.9963 23.3029 31.6457 23.4431 31.3483C23.5834 31.0513 23.876 30.8552 24.2042 30.839C24.5327 30.8229 24.8431 30.9887 25.0121 31.2707C25.5868 32.1326 26.2426 32.9373 26.9702 33.6743C27.3172 34.0218 27.3172 34.5847 26.9702 34.9321ZM32.5455 38.3145C32.4529 38.532 32.2776 38.7033 32.0582 38.7915C31.8392 38.8794 31.5938 38.8766 31.3767 38.7837C30.3179 38.3315 29.3056 37.7768 28.3547 37.1281C27.9904 36.837 27.9128 36.3139 28.1763 35.9294C28.4402 35.545 28.9558 35.4292 29.3588 35.6639C30.2136 36.2481 31.1239 36.7468 32.0763 37.1529C32.5269 37.3459 32.7365 37.867 32.5455 38.3181V38.3145Z" fill="#37A6F6"/>
<path id="Vector_6" d="M39.1415 21.9732C42.1588 27.6422 41.5081 34.5639 37.4875 39.5716L36.5929 49.0209C36.5689 49.2711 36.652 49.52 36.8218 49.7055C36.9912 49.8914 37.2315 49.9966 37.4828 49.9954H44.6329C45.0934 49.9978 45.4798 49.6476 45.5231 49.1891L49.5098 6.87405L40.6458 6.0437L39.1415 21.9732Z" fill="#37A6F6"/>
<path id="Vector_7" d="M48.3229 0.508171L43.0059 0.00948985C42.5356 -0.0373847 42.0661 0.105208 41.7013 0.406151C41.337 0.707093 41.1081 1.14117 41.0652 1.61189L40.8135 4.27507L49.6775 5.10581L49.9296 2.44499C50.0178 1.46969 49.3017 0.606253 48.3272 0.512505L48.3229 0.508171Z" fill="#37A6F6"/>
<path id="Vector_8" d="M27.4097 45.3481C25.1227 45.716 22.7826 45.5667 20.5605 44.9116V49.1055C20.5605 49.5971 20.9592 49.9953 21.4508 49.9953H28.5722C29.0637 49.9953 29.4624 49.5971 29.4624 49.1055V44.9116C28.8743 45.0782 28.2771 45.211 27.6741 45.3087C27.5902 45.3351 27.5027 45.3485 27.4149 45.3489L27.4097 45.3481Z" fill="#37A6F6"/>
<path id="Vector_9" d="M29.5051 1.9629C29.5091 1.49061 29.3251 1.03604 28.9938 0.699256C28.6626 0.362862 28.2112 0.171425 27.7389 0.167486L22.3979 0.125732H22.3826C21.4053 0.125732 20.6108 0.913539 20.6025 1.89081L20.582 4.59693H29.4835L29.5051 1.9629Z" fill="#37A6F6"/>
</g>
<defs>
<clipPath id="clip0">
<rect width="50" height="50" fill="white"/>
</clipPath>
</defs>
</svg>
