<svg width="50" height="50" viewBox="0 0 50 50" fill="none" xmlns="http://www.w3.org/2000/svg">
<circle cx="25" cy="25" r="25" fill="#C4C4C4"/>
<g clip-path="url(#clip0)">
<path d="M25.0088 16.0156C19.3302 16.0156 14.7499 20.0234 14.7499 24.9922C14.7499 29.9609 19.3302 33.9688 25.0088 33.9688C30.6874 33.9688 35.2677 29.9609 35.2677 24.9922C35.2677 20.0234 30.6874 16.0156 25.0088 16.0156ZM25.0088 30.8281C21.3391 30.8281 18.3391 28.2109 18.3391 24.9922C18.3391 21.7734 21.3302 19.1563 25.0088 19.1563C28.6874 19.1563 31.6784 21.7734 31.6784 24.9922C31.6784 28.2109 28.6784 30.8281 25.0088 30.8281ZM38.0802 15.6484C38.0802 16.8125 37.0088 17.7422 35.6874 17.7422C34.357 17.7422 33.2945 16.8047 33.2945 15.6484C33.2945 14.4922 34.3659 13.5547 35.6874 13.5547C37.0088 13.5547 38.0802 14.4922 38.0802 15.6484ZM44.8749 17.7734C44.7231 14.9688 43.9909 12.4844 41.6427 10.4375C39.3034 8.39062 36.4641 7.75 33.2588 7.60938C29.9552 7.44531 20.0534 7.44531 16.7499 7.60938C13.5534 7.74219 10.7141 8.38281 8.36593 10.4297C6.01772 12.4766 5.2945 14.9609 5.13379 17.7656C4.94629 20.6563 4.94629 29.3203 5.13379 32.2109C5.28557 35.0156 6.01772 37.5 8.36593 39.5469C10.7141 41.5938 13.5445 42.2344 16.7499 42.375C20.0534 42.5391 29.9552 42.5391 33.2588 42.375C36.4641 42.2422 39.3034 41.6016 41.6427 39.5469C43.982 37.5 44.7141 35.0156 44.8749 32.2109C45.0624 29.3203 45.0624 20.6641 44.8749 17.7734ZM40.607 35.3125C39.9106 36.8438 38.5624 38.0234 36.8034 38.6406C34.1695 39.5547 27.9195 39.3438 25.0088 39.3438C22.0981 39.3438 15.8391 39.5469 13.2141 38.6406C11.4641 38.0313 10.1159 36.8516 9.41057 35.3125C8.36593 33.0078 8.607 27.5391 8.607 24.9922C8.607 22.4453 8.37486 16.9688 9.41057 14.6719C10.107 13.1406 11.4552 11.9609 13.2141 11.3438C15.8481 10.4297 22.0981 10.6406 25.0088 10.6406C27.9195 10.6406 34.1784 10.4375 36.8034 11.3438C38.5534 11.9531 39.9016 13.1328 40.607 14.6719C41.6516 16.9766 41.4106 22.4453 41.4106 24.9922C41.4106 27.5391 41.6516 33.0156 40.607 35.3125Z" fill="black"/>
</g>
<defs>
<clipPath id="clip0">
<rect width="40" height="40" fill="white" transform="translate(5 5)"/>
</clipPath>
</defs>
</svg>
