<svg width="50" height="50" viewBox="0 0 50 50" fill="none" xmlns="http://www.w3.org/2000/svg">
<circle cx="25" cy="25" r="25" fill="#C4C4C4"/>
<g clip-path="url(#clip0)">
<path d="M42.3883 18.3528C42.4137 18.7081 42.4137 19.0635 42.4137 19.4188C42.4137 30.2563 34.165 42.7437 19.0888 42.7437C14.4441 42.7437 10.1295 41.3984 6.5 39.0635C7.15992 39.1396 7.79437 39.165 8.47969 39.165C12.3121 39.165 15.8401 37.8706 18.6573 35.6625C15.0533 35.5863 12.033 33.2259 10.9923 29.9772C11.5 30.0533 12.0076 30.1041 12.5406 30.1041C13.2766 30.1041 14.0127 30.0025 14.698 29.8249C10.9416 29.0634 8.1243 25.764 8.1243 21.7792V21.6777C9.21563 22.2869 10.4848 22.6676 11.8298 22.7183C9.62172 21.2462 8.17508 18.7335 8.17508 15.8909C8.17508 14.368 8.58109 12.9721 9.2918 11.7538C13.3273 16.7284 19.3934 19.9771 26.1953 20.3325C26.0684 19.7234 25.9923 19.0889 25.9923 18.4544C25.9923 13.9366 29.6471 10.2564 34.1902 10.2564C36.5506 10.2564 38.6826 11.2463 40.1801 12.8452C42.0328 12.4899 43.8095 11.8046 45.3831 10.8655C44.7739 12.7691 43.4795 14.3681 41.7791 15.3833C43.4288 15.2057 45.0278 14.7488 46.4998 14.1143C45.3833 15.7386 43.9873 17.1852 42.3883 18.3528Z" fill="black"/>
</g>
<defs>
<clipPath id="clip0">
<rect width="40" height="40" fill="white" transform="translate(6.5 6.5)"/>
</clipPath>
</defs>
</svg>
